<?xml version="1.0" standalone="no"?>
<!DOCTYPE svg PUBLIC "-//W3C//DTD SVG 20010904//EN"
 "http://www.w3.org/TR/2001/REC-SVG-20010904/DTD/svg10.dtd">
<svg version="1.0" xmlns="http://www.w3.org/2000/svg"
 width="24px"   viewBox="0 0 512.000000 512.000000"
 preserveAspectRatio="xMidYMid meet">
<metadata>
Created by potrace 1.16, written by Peter Selinger 2001-2019
</metadata>
<g transform="translate(0.000000,512.000000) scale(0.100000,-0.100000)"
fill="#606060" stroke="none">
<path d="M1435 4683 c-99 -13 -213 -39 -304 -69 -473 -157 -772 -553 -821
-1085 -8 -86 -10 -439 -8 -1159 4 -1143 2 -1097 70 -1310 124 -386 427 -683
813 -795 215 -62 167 -60 1350 -60 838 0 1099 3 1165 13 607 93 1006 499 1079
1097 7 60 11 436 11 1135 0 871 -3 1063 -15 1150 -40 281 -157 526 -339 712
-160 162 -321 259 -539 322 -192 56 -202 56 -1363 55 -588 -1 -1082 -4 -1099
-6z m2164 -423 c254 -26 471 -136 596 -302 63 -82 129 -222 157 -328 l23 -85
0 -1100 0 -1100 -23 -83 c-47 -172 -114 -285 -241 -404 -96 -90 -233 -163
-376 -200 l-90 -23 -1100 0 c-1100 0 -1100 0 -1182 22 -181 48 -283 104 -399
218 -67 66 -89 97 -131 181 -29 58 -61 141 -74 195 l-24 94 0 1105 c0 1026 1
1110 18 1175 42 167 115 302 217 405 127 127 311 206 529 229 116 13 1980 13
2100 1z"/>
<path d="M3677 3896 c-229 -64 -266 -385 -57 -491 113 -57 230 -39 315 48 57
59 75 105 75 193 0 173 -165 297 -333 250z"/>
<path d="M2455 3614 c-135 -18 -191 -30 -266 -54 -406 -133 -704 -472 -784
-891 -19 -103 -20 -310 0 -421 82 -473 459 -850 934 -933 107 -19 305 -19 412
0 476 83 855 465 940 945 18 105 16 306 -5 413 -89 463 -461 834 -921 922 -77
15 -260 26 -310 19z m310 -458 c116 -37 198 -89 295 -186 96 -96 148 -178 187
-295 24 -71 27 -95 27 -220 0 -127 -2 -147 -27 -220 -83 -237 -264 -411 -507
-486 -96 -30 -270 -33 -370 -6 -259 69 -467 276 -537 537 -27 99 -24 273 6
370 83 268 291 465 556 526 95 22 271 12 370 -20z"/>
</g>
</svg>
