<?xml version="1.0" standalone="no"?>
<!DOCTYPE svg PUBLIC "-//W3C//DTD SVG 20010904//EN"
 "http://www.w3.org/TR/2001/REC-SVG-20010904/DTD/svg10.dtd">
<svg version="1.0" xmlns="http://www.w3.org/2000/svg"
 width="24px" viewBox="0 0 512.000000 512.000000"
 preserveAspectRatio="xMidYMid meet">
<metadata>
Created by potrace 1.16, written by Peter Selinger 2001-2019
</metadata>
<g transform="translate(0.000000,512.000000) scale(0.100000,-0.100000)"
fill="#606060" stroke="none">
<path d="M1180 4637 c0 -1 77 -232 170 -512 l170 -510 0 -327 0 -328 145 0
145 0 0 344 0 344 165 490 c91 269 165 492 165 495 0 4 -67 7 -148 7 l-149 0
-83 -317 c-45 -175 -86 -327 -90 -338 -9 -24 -6 -35 -116 367 l-79 288 -147 0
c-82 0 -148 -1 -148 -3z"/>
<path d="M2369 4208 c-81 -29 -132 -66 -170 -126 -46 -73 -50 -117 -47 -524 3
-330 6 -378 22 -420 25 -66 95 -141 164 -175 54 -26 65 -28 187 -28 119 0 134
2 185 26 73 35 135 99 160 167 20 53 21 73 18 471 l-3 416 -27 46 c-34 58 -97
115 -156 141 -36 16 -74 22 -157 25 -96 3 -119 1 -176 -19z m206 -213 c21 -8
39 -25 45 -41 7 -17 10 -157 8 -386 l-3 -360 -33 -29 c-34 -31 -85 -39 -123
-19 -47 25 -49 46 -49 422 0 377 2 391 50 415 33 17 63 16 105 -2z"/>
<path d="M3092 3633 c3 -554 4 -569 24 -608 12 -23 37 -50 60 -63 33 -19 50
-22 109 -19 80 4 139 30 223 96 l52 41 0 -60 0 -60 130 0 130 0 0 620 0 620
-130 0 -130 0 0 -469 0 -470 -43 -35 c-77 -63 -138 -71 -157 -20 -6 15 -10
223 -10 510 l0 484 -130 0 -131 0 3 -567z"/>
<path d="M1035 2569 c-230 -34 -435 -165 -563 -361 -58 -89 -105 -212 -121
-315 -7 -44 -11 -225 -11 -465 0 -345 3 -404 19 -484 61 -296 281 -530 578
-616 l78 -23 1545 0 1545 0 78 23 c236 68 422 227 522 445 67 148 68 158 73
621 2 273 -1 443 -8 490 -26 167 -108 332 -223 449 -103 104 -230 179 -375
220 l-77 22 -1500 1 c-825 1 -1527 -2 -1560 -7z m705 -394 l0 -105 -130 0
-130 0 0 -650 0 -650 -120 0 -120 0 0 650 0 650 -135 0 -135 0 0 105 0 105
385 0 385 0 0 -105z m1130 -141 l0 -245 43 34 c82 67 146 86 218 67 61 -16
102 -50 130 -107 24 -48 24 -51 27 -433 3 -267 0 -401 -8 -438 -13 -61 -57
-118 -107 -138 -75 -32 -193 -8 -258 51 -21 19 -39 35 -41 35 -2 0 -4 -20 -4
-45 l0 -45 -105 0 -105 0 0 755 0 755 105 0 105 0 0 -246z m1044 -158 c40 -20
68 -42 90 -73 53 -76 59 -103 64 -305 l4 -188 -216 0 -216 0 0 -145 c0 -199
17 -235 108 -235 71 0 101 48 102 163 l0 47 111 0 112 0 -6 -82 c-7 -95 -26
-157 -64 -206 -96 -127 -339 -148 -474 -42 -24 19 -51 57 -71 98 l-33 67 -3
336 c-3 324 -2 338 19 394 23 63 71 122 126 156 60 37 112 49 204 46 70 -2 96
-8 143 -31z m-1854 -433 c0 -332 3 -444 13 -463 20 -40 72 -39 133 2 l49 33 3
433 2 432 110 0 110 0 0 -555 0 -555 -110 0 -110 0 0 61 0 60 -57 -45 c-80
-62 -136 -86 -205 -86 -49 0 -62 4 -91 30 -18 16 -39 47 -45 68 -9 28 -12 184
-12 531 l0 491 105 0 105 0 0 -437z"/>
<path d="M2930 1723 c-8 -3 -25 -15 -37 -26 l-23 -20 0 -351 0 -351 37 -25
c45 -31 113 -34 140 -7 17 16 18 45 18 378 l0 361 -28 24 c-27 23 -71 30 -107
17z"/>
<path d="M3735 1724 c-6 -1 -23 -5 -38 -8 -40 -9 -57 -56 -57 -161 l0 -85 106
0 106 0 -4 95 c-3 76 -8 100 -24 122 -19 25 -63 43 -89 37z"/>
</g>
</svg>
